# xmcd
#
# Track frame offsets:
#	150
#	3966
#	17070
#	44332
#	61351
#	75816
#	90201
#	109016
#	125140
#	137677
#	152543
#	172671
#	189574
#	204451
#	218010
#	237213
#	248106
#	267332
#
# Disc length: 3954 seconds
#
# Revision: 0
# Processed by: cddbd v1.4PL0 Copyright (c) Steve Scherf et al.
# Submitted via: dBpowerAMP V4.0
#
DISCID=db0f7012
DTITLE=Basement Five - Briefcase Full Of Soul
DYEAR=1900
DGENRE=Pop
TTITLE0=Chicken Shack
TTITLE1=Grits Ain't Groceries
TTITLE2=Mustang Sally
TTITLE3=I Wish
TTITLE4=Jailhouse Rock
TTITLE5=Dark End Of Street
TTITLE6=I Can't Stand The Rain
TTITLE7=Take Me To The River
TTITLE8=Hold On I'm Comming
TTITLE9=Hard To Handle
TTITLE10=Sexmachine
TTITLE11=I Feel Good
TTITLE12=Knock On Wood
TTITLE13=Soulman
TTITLE14=Proud Mary
TTITLE15=Midnight Hour
TTITLE16=Gimme Some Lovin'
TTITLE17=Treat Her Right
EXTD=Ripped by Han
EXTT0=
EXTT1=
EXTT2=
EXTT3=
EXTT4=
EXTT5=
EXTT6=
EXTT7=
EXTT8=
EXTT9=
EXTT10=
EXTT11=
EXTT12=
EXTT13=
EXTT14=
EXTT15=
EXTT16=
EXTT17=
PLAYORDER=
